<?xml version="1.0" encoding="UTF-8"?>
<svg xmlns="http://www.w3.org/2000/svg" xmlns:xlink="http://www.w3.org/1999/xlink" width="1259.94pt" height="400pt" viewBox="0 0 1259.94 400" version="1.1">
<g id="surface1">
<path style=" stroke:none;fill-rule:nonzero;fill:rgb(6.298828%,48.199463%,75.299072%);fill-opacity:1;" d="M 1259.941406 400 L 0 400 L 0 0 L 1259.941406 0 L 1259.941406 400 "/>
<path style=" stroke:none;fill-rule:nonzero;fill:rgb(100%,100%,100%);fill-opacity:1;" d="M 336.769531 26.222656 L 284.710938 26.222656 C 275.847656 26.222656 268.089844 32.585938 264.773438 40.683594 C 264.21875 41.257813 264.21875 41.835938 264.21875 42.414063 C 244.277344 101.984375 227.105469 152.304688 207.175781 211.875 C 202.183594 227.488281 196.644531 243.101563 191.664063 258.714844 C 191.109375 259.875 190 261.613281 188.890625 262.179688 C 186.683594 262.757813 186.683594 260.453125 186.117188 258.714844 C 173.933594 221.703125 161.195313 184.691406 149.015625 147.671875 C 136.273438 109.503906 125.746094 78.273438 113.007813 40.105469 C 113.007813 39.523438 112.453125 39.523438 112.453125 38.941406 C 109.136719 31.425781 101.378906 26.222656 93.070313 26.222656 L 39.902344 26.222656 C 33.253906 26.222656 29.925781 31.425781 32.144531 37.789063 C 62.613281 127.433594 93.625 216.5 124.09375 306.132813 C 126.300781 313.078125 128.519531 318.863281 130.183594 324.648438 C 141.8125 352.988281 159.53125 368.023438 191.109375 369.765625 L 198.308594 369.765625 C 208.273438 369.183594 219.914063 368.023438 233.207031 365.140625 L 254.800781 300.367188 C 285.265625 213.035156 314.625 127.433594 345.636719 38.941406 C 346.191406 37.789063 346.191406 36.632813 346.746094 36.050781 C 346.191406 30.273438 342.316406 26.222656 336.769531 26.222656 "/>
<path style=" stroke:none;fill-rule:nonzero;fill:rgb(100%,100%,100%);fill-opacity:1;" d="M 631.433594 49.941406 L 631.433594 49.359375 C 631.433594 37.210938 622.578125 27.960938 611.496094 26.800781 L 556.660156 26.800781 L 556.660156 230.96875 C 556.660156 236.753906 556.105469 243.117188 554.996094 248.902344 C 550.015625 270.878906 536.722656 286.492188 515.675781 292.855469 C 494.628906 299.785156 474.6875 295.757813 458.074219 280.128906 C 445.328125 267.980469 439.238281 252.945313 439.238281 235.59375 L 439.238281 27.382813 L 384.414063 27.382813 C 373.328125 28.542969 364.464844 37.789063 364.464844 49.941406 L 364.464844 237.914063 C 364.464844 247.742188 365.574219 257.570313 367.792969 267.398438 C 383.304688 337.976563 450.320313 384.8125 521.765625 371.519531 C 555.554688 365.140625 582.691406 347.804688 603.738281 319.460938 C 620.914063 296.320313 630.332031 269.71875 630.878906 240.234375 L 630.878906 141.324219 C 630.878906 112.980469 631.433594 78.28125 631.433594 49.941406 "/>
<path style=" stroke:none;fill-rule:nonzero;fill:rgb(100%,100%,100%);fill-opacity:1;" d="M 1226.300781 49.941406 L 1226.300781 49.359375 C 1226.300781 37.210938 1217.441406 27.960938 1206.351563 26.800781 L 1151.519531 26.800781 L 1151.519531 230.96875 C 1151.519531 236.753906 1150.960938 243.117188 1149.871094 248.902344 C 1144.890625 270.878906 1131.578125 286.492188 1110.539063 292.855469 C 1089.5 299.785156 1069.550781 295.757813 1052.949219 280.128906 C 1040.179688 267.980469 1034.109375 252.945313 1034.109375 235.59375 L 1034.109375 27.382813 L 979.265625 27.382813 C 968.191406 28.542969 959.335938 37.789063 959.335938 49.941406 L 959.335938 237.914063 C 959.335938 247.742188 960.429688 257.570313 962.644531 267.398438 C 978.15625 337.976563 1045.179688 384.8125 1116.628906 371.519531 C 1150.410156 365.140625 1177.550781 347.804688 1198.601563 319.460938 C 1215.769531 296.320313 1225.191406 269.71875 1225.730469 240.234375 L 1225.730469 141.324219 C 1226.300781 112.980469 1226.300781 78.28125 1226.300781 49.941406 "/>
<path style=" stroke:none;fill-rule:nonzero;fill:rgb(100%,100%,100%);fill-opacity:1;" d="M 842.449219 265.078125 C 827.503906 283.59375 808.117188 294.003906 784.859375 296.886719 C 780.425781 297.46875 776.003906 297.46875 771.570313 297.46875 L 732.800781 297.46875 C 727.816406 297.46875 727.816406 297.46875 727.816406 292.84375 L 727.816406 103.144531 C 727.816406 98.519531 727.816406 98.519531 732.238281 98.519531 C 747.746094 98.519531 763.824219 97.941406 779.316406 99.101563 C 808.664063 100.832031 831.941406 114.714844 848.558594 139.585938 C 858.523438 155.199219 864.054688 172.550781 865.179688 191.058594 C 866.273438 218.820313 859.632813 243.679688 842.449219 265.078125 M 864.617188 53.414063 C 840.8125 37.789063 814.210938 29.121094 785.96875 27.964844 C 772.679688 27.382813 759.929688 27.382813 746.636719 27.382813 L 677.414063 27.382813 C 665.230469 27.382813 655.808594 37.21875 655.808594 49.941406 L 655.808594 346.625 C 655.808594 346.625 655.808594 346.625 655.808594 347.207031 C 655.808594 359.917969 665.230469 369.765625 677.414063 369.765625 L 781.535156 369.765625 C 789.28125 369.765625 797.609375 369.183594 805.355469 367.441406 C 836.921875 362.238281 865.179688 348.367188 888.4375 325.808594 C 932.753906 283.015625 950.464844 229.792969 939.953125 167.921875 C 931.078125 117.605469 905.039063 80.015625 864.617188 53.414063 "/>
</g>
</svg>
