<?xml version="1.0" encoding="UTF-8"?>
<svg width="136px" height="40px" viewBox="0 0 136 40" version="1.1" xmlns="http://www.w3.org/2000/svg" xmlns:xlink="http://www.w3.org/1999/xlink">
    <!-- Generator: sketchtool 57.1 (101010) - https://sketch.com -->
    <title>9EA9A4AC-2E2A-4E95-B24B-75A4B90A615A</title>
    <desc>Created with sketchtool.</desc>
    <defs>
        <linearGradient x1="61.0811002%" y1="4.94692737%" x2="26.3837373%" y2="71.9158021%" id="linearGradient-1">
            <stop stop-color="#00A0FF" offset="0%"></stop>
            <stop stop-color="#00A1FF" offset="0.657445%"></stop>
            <stop stop-color="#00BEFF" offset="26.01%"></stop>
            <stop stop-color="#00D2FF" offset="51.22%"></stop>
            <stop stop-color="#00DFFF" offset="76.04%"></stop>
            <stop stop-color="#00E3FF" offset="100%"></stop>
        </linearGradient>
        <linearGradient x1="107.622047%" y1="50.0163551%" x2="-130.536417%" y2="50.0163551%" id="linearGradient-2">
            <stop stop-color="#FFE000" offset="0%"></stop>
            <stop stop-color="#FFBD00" offset="40.87%"></stop>
            <stop stop-color="#FFA500" offset="77.54%"></stop>
            <stop stop-color="#FF9C00" offset="100%"></stop>
        </linearGradient>
        <linearGradient x1="86.2529976%" y1="30.9905455%" x2="-50.1876499%" y2="135.657274%" id="linearGradient-3">
            <stop stop-color="#FF3A44" offset="0%"></stop>
            <stop stop-color="#C31162" offset="100%"></stop>
        </linearGradient>
        <linearGradient x1="-18.7699221%" y1="-11.527648%" x2="42.1204314%" y2="35.1542827%" id="linearGradient-4">
            <stop stop-color="#32A071" offset="0%"></stop>
            <stop stop-color="#2DA771" offset="6.85%"></stop>
            <stop stop-color="#15CF74" offset="47.62%"></stop>
            <stop stop-color="#06E775" offset="80.09%"></stop>
            <stop stop-color="#00F076" offset="100%"></stop>
        </linearGradient>
    </defs>
    <g id="Page-1" stroke="none" stroke-width="1" fill="none" fill-rule="evenodd">
        <g id="D2D-DVbV-LP-mWeb-V2-Quick-Fix-Version" transform="translate(-113.000000, -1300.000000)" fill-rule="nonzero">
            <g id="google-play-badge" transform="translate(113.000000, 1300.000000)">
                <path d="M130.320988,40 L5.01234568,40 C2.25555556,40 0,37.75 0,35 L0,5 C0,2.25 2.25555556,0 5.01234568,0 L130.320988,0 C133.077778,0 135.333333,2.25 135.333333,5 L135.333333,35 C135.333333,37.75 133.077778,40 130.320988,40 Z" id="Path" fill="#000000"></path>
                <path d="M130.320988,0.8 C132.646716,0.8 134.531358,2.68 134.531358,5 L134.531358,35 C134.531358,37.32 132.646716,39.2 130.320988,39.2 L5.01234568,39.2 C2.68661728,39.2 0.801975309,37.32 0.801975309,35 L0.801975309,5 C0.801975309,2.68 2.68661728,0.8 5.01234568,0.8 L130.320988,0.8 L130.320988,0.8 Z M130.320988,0 L5.01234568,0 C2.25555556,0 0,2.25 0,5 L0,35 C0,37.75 2.25555556,40 5.01234568,40 L130.320988,40 C133.077778,40 135.333333,37.75 135.333333,35 L135.333333,5 C135.333333,2.25 133.077778,0 130.320988,0 L130.320988,0 Z" id="Shape" fill="#A6A6A6"></path>
                <g id="Group" transform="translate(41.101235, 6.000000)" fill="#FFFFFF" stroke="#FFFFFF" stroke-width="0.5">
                    <path d="M6.43585185,4.24 C6.43585185,5.08 6.18523457,5.75 5.684,6.24 C5.12261728,6.83 4.38079012,7.13 3.4785679,7.13 C2.60641975,7.13 1.87461728,6.83 1.26311111,6.23 C0.651604938,5.63 0.350864198,4.88 0.350864198,4 C0.350864198,3.11 0.651604938,2.37 1.26311111,1.77 C1.87461728,1.17 2.60641975,0.87 3.4785679,0.87 C3.90962963,0.87 4.32064198,0.95 4.71160494,1.12 C5.1025679,1.29 5.41333333,1.51 5.65392593,1.79 L5.12261728,2.32 C4.72162963,1.85 4.1802963,1.61 3.4785679,1.61 C2.84701235,1.61 2.29565432,1.83 1.83451852,2.28 C1.37338272,2.72 1.14281481,3.3 1.14281481,4.01 C1.14281481,4.72 1.37338272,5.3 1.83451852,5.74 C2.29565432,6.18 2.84701235,6.41 3.4785679,6.41 C4.15022222,6.41 4.71160494,6.19 5.16271605,5.74 C5.4534321,5.45 5.62385185,5.04 5.66395062,4.52 L3.4785679,4.52 L3.4785679,3.8 L6.39575309,3.8 C6.41580247,3.95 6.43585185,4.1 6.43585185,4.24 Z" id="Path"></path>
                    <polygon id="Path" points="11.0572346 1.74 8.32049383 1.74 8.32049383 3.64 10.7865679 3.64 10.7865679 4.36 8.32049383 4.36 8.32049383 6.26 11.0572346 6.26 11.0572346 7 7.54859259 7 7.54859259 1 11.0572346 1 11.0572346 1.74"></polygon>
                    <polygon id="Path" points="14.3152593 7 13.543358 7 13.543358 1.74 11.8592099 1.74 11.8592099 1 15.9893827 1 15.9893827 1.74 14.3052346 1.74 14.3052346 7"></polygon>
                    <polygon id="Path" points="18.9867654 7 18.9867654 1 19.7586667 1 19.7586667 7"></polygon>
                    <polygon id="Path" points="23.1871111 7 22.4152099 7 22.4152099 1.74 20.7310617 1.74 20.7310617 1 24.8612346 1 24.8612346 1.74 23.1770864 1.74 23.1770864 7"></polygon>
                    <path d="M32.6905185,6.22 C32.0990617,6.83 31.3672593,7.13 30.4850864,7.13 C29.6029136,7.13 28.8711111,6.83 28.2796543,6.22 C27.6881975,5.61 27.3974815,4.87 27.3974815,4 C27.3974815,3.13 27.6881975,2.38 28.2796543,1.78 C28.8711111,1.17 29.6029136,0.87 30.4850864,0.87 C31.3572346,0.87 32.089037,1.17 32.6905185,1.78 C33.2819753,2.39 33.582716,3.13 33.582716,4 C33.5726914,4.88 33.2819753,5.62 32.6905185,6.22 Z M28.8510617,5.72 C29.2921481,6.17 29.8435062,6.39 30.4850864,6.39 C31.1266667,6.39 31.6780247,6.17 32.1191111,5.72 C32.5601975,5.27 32.7907654,4.7 32.7907654,4 C32.7907654,3.3 32.5702222,2.73 32.1191111,2.28 C31.6780247,1.83 31.1266667,1.61 30.4850864,1.61 C29.8435062,1.61 29.2921481,1.83 28.8510617,2.28 C28.4099753,2.73 28.1794074,3.3 28.1794074,4 C28.1794074,4.7 28.4099753,5.27 28.8510617,5.72 Z" id="Shape"></path>
                    <polygon id="Path" points="34.6653827 7 34.6653827 1 35.6077037 1 38.5349136 5.67 38.5649877 5.67 38.5349136 4.51 38.5349136 1 39.3068148 1 39.3068148 7 38.5048395 7 35.4473086 2.11 35.4172346 2.11 35.4473086 3.27 35.4473086 7"></polygon>
                </g>
                <path d="M68.3082469,21.75 C65.9524444,21.75 64.0277037,23.54 64.0277037,26 C64.0277037,28.45 65.9524444,30.25 68.3082469,30.25 C70.6640494,30.25 72.5887901,28.45 72.5887901,26 C72.5887901,23.54 70.6640494,21.75 68.3082469,21.75 Z M68.3082469,28.58 C67.0150617,28.58 65.902321,27.52 65.902321,26 C65.902321,24.47 67.0150617,23.42 68.3082469,23.42 C69.6014321,23.42 70.7141728,24.47 70.7141728,26 C70.7141728,27.52 69.5914074,28.58 68.3082469,28.58 Z M58.9652346,21.75 C56.6094321,21.75 54.6846914,23.54 54.6846914,26 C54.6846914,28.45 56.6094321,30.25 58.9652346,30.25 C61.321037,30.25 63.2457778,28.45 63.2457778,26 C63.2457778,23.54 61.321037,21.75 58.9652346,21.75 Z M58.9652346,28.58 C57.6720494,28.58 56.5593086,27.52 56.5593086,26 C56.5593086,24.47 57.6720494,23.42 58.9652346,23.42 C60.2584198,23.42 61.3711605,24.47 61.3711605,26 C61.3711605,27.52 60.2584198,28.58 58.9652346,28.58 Z M47.8578765,23.06 L47.8578765,24.86 L52.1885432,24.86 C52.0582222,25.87 51.7173827,26.62 51.2061235,27.13 C50.5745679,27.76 49.5921481,28.45 47.8679012,28.45 C45.2013333,28.45 43.1161975,26.31 43.1161975,23.65 C43.1161975,20.99 45.2013333,18.85 47.8679012,18.85 C49.3014321,18.85 50.3540247,19.41 51.1259259,20.14 L52.3990617,18.87 C51.3163951,17.84 49.8828642,17.05 47.8578765,17.05 C44.2088889,17.05 41.1413333,20.01 41.1413333,23.66 C41.1413333,27.3 44.2088889,30.27 47.8578765,30.27 C49.8327407,30.27 51.3163951,29.63 52.4792593,28.42 C53.6721975,27.23 54.0431111,25.55 54.0431111,24.2 C54.0431111,23.78 54.013037,23.39 53.9428642,23.07 L47.8578765,23.07 L47.8578765,23.06 Z M93.2797531,24.46 C92.9288889,23.51 91.8462222,21.75 89.6307654,21.75 C87.435358,21.75 85.6108642,23.47 85.6108642,26 C85.6108642,28.38 87.4153086,30.25 89.841284,30.25 C91.7960988,30.25 92.9288889,29.06 93.3900247,28.37 L91.9364444,27.4 C91.4552593,28.11 90.7936296,28.58 89.841284,28.58 C88.8889383,28.58 88.2072593,28.14 87.7761975,27.29 L93.4802469,24.94 L93.2797531,24.46 Z M87.4654321,25.88 C87.4153086,24.24 88.7385679,23.4 89.6909136,23.4 C90.4327407,23.4 91.0642963,23.77 91.2748148,24.3 L87.4654321,25.88 Z M82.8340247,30 L84.708642,30 L84.708642,17.5 L82.8340247,17.5 L82.8340247,30 Z M79.7664691,22.7 L79.6962963,22.7 C79.2752593,22.2 78.473284,21.75 77.4507654,21.75 C75.3155062,21.75 73.3606914,23.62 73.3606914,26.02 C73.3606914,28.4 75.3155062,30.26 77.4507654,30.26 C78.4632593,30.26 79.2752593,29.81 79.6962963,29.29 L79.7564444,29.29 L79.7564444,29.9 C79.7564444,31.53 78.8842963,32.4 77.4808395,32.4 C76.3380247,32.4 75.6262716,31.58 75.3355556,30.89 L73.7015309,31.57 C74.1726914,32.7 75.4157531,34.08 77.4808395,34.08 C79.6762469,34.08 81.5308148,32.79 81.5308148,29.65 L81.5308148,22.01 L79.7564444,22.01 L79.7564444,22.7 L79.7664691,22.7 Z M77.6111605,28.58 C76.3179753,28.58 75.2353086,27.5 75.2353086,26.02 C75.2353086,24.52 76.3179753,23.43 77.6111605,23.43 C78.8842963,23.43 79.8867654,24.53 79.8867654,26.02 C79.8967901,27.5 78.894321,28.58 77.6111605,28.58 Z M102.061383,17.5 L97.5803457,17.5 L97.5803457,30 L99.454963,30 L99.454963,25.26 L102.071407,25.26 C104.146519,25.26 106.181531,23.76 106.181531,21.38 C106.181531,19 104.126469,17.5 102.061383,17.5 Z M102.101481,23.52 L99.4449383,23.52 L99.4449383,19.23 L102.101481,19.23 C103.504938,19.23 104.296889,20.39 104.296889,21.37 C104.296889,22.35 103.504938,23.52 102.101481,23.52 Z M113.669975,21.73 C112.316642,21.73 110.913185,22.33 110.331753,23.64 L111.995852,24.33 C112.346716,23.64 113.008346,23.41 113.700049,23.41 C114.66242,23.41 115.654864,23.99 115.664889,25.02 L115.664889,25.15 C115.324049,24.96 114.602272,24.67 113.710074,24.67 C111.915654,24.67 110.101185,25.65 110.101185,27.48 C110.101185,29.15 111.56479,30.23 113.20884,30.23 C114.461926,30.23 115.163654,29.67 115.594716,29.01 L115.654864,29.01 L115.654864,29.98 L117.459354,29.98 L117.459354,25.19 C117.469333,22.97 115.805235,21.73 113.669975,21.73 Z M113.439407,28.58 C112.827901,28.58 111.975802,28.27 111.975802,27.52 C111.975802,26.56 113.03842,26.19 113.960691,26.19 C114.782716,26.19 115.173679,26.37 115.664889,26.61 C115.524543,27.76 114.522074,28.58 113.439407,28.58 Z M124.045531,22 L121.900247,27.42 L121.840099,27.42 L119.614617,22 L117.599654,22 L120.937877,29.58 L119.033185,33.79 L120.988,33.79 L126.130667,22 L124.045531,22 Z M107.204049,30 L109.078667,30 L109.078667,17.5 L107.204049,17.5 L107.204049,30 Z" id="Shape" fill="#FFFFFF"></path>
                <g id="Group" transform="translate(9.022222, 7.000000)">
                    <path d="M1.44355556,0.54 C1.15283951,0.85 0.982419753,1.33 0.982419753,1.94 L0.982419753,24.06 C0.982419753,24.68 1.15283951,25.16 1.44355556,25.46 L1.5137284,25.53 L13.934321,13.15 L13.934321,13 L13.934321,12.85 L1.5137284,0.47 L1.44355556,0.54 Z" id="Path" fill="url(#linearGradient-1)"></path>
                    <path d="M18.0745185,17.28 L13.934321,13.15 L13.934321,13 L13.934321,12.85 L18.0745185,8.72 L18.1647407,8.77 L23.0668148,11.55 C24.4702716,12.34 24.4702716,13.64 23.0668148,14.44 L18.1647407,17.22 L18.0745185,17.28 Z" id="Path" fill="url(#linearGradient-2)"></path>
                    <path d="M18.1647407,17.22 L13.934321,13 L1.44355556,25.46 C1.90469136,25.95 2.6665679,26.01 3.52869136,25.52 L18.1647407,17.22" id="Path" fill="url(#linearGradient-3)"></path>
                    <path d="M18.1647407,8.78 L3.51866667,0.48 C2.65654321,-0.01 1.89466667,0.05 1.43353086,0.54 L13.934321,13 L18.1647407,8.78 Z" id="Path" fill="url(#linearGradient-4)"></path>
                    <g transform="translate(0.000000, 17.000000)" fill="#000000" id="Path">
                        <path d="M18.0745185,0.13 L3.51866667,8.38 C2.70666667,8.84 1.9748642,8.81 1.5137284,8.39 L1.5137284,8.39 L1.44355556,8.46 L1.44355556,8.46 L1.5137284,8.53 L1.5137284,8.53 C1.98488889,8.95 2.70666667,8.98 3.51866667,8.52 L18.1647407,0.22 L18.0745185,0.13 Z" opacity="0.2"></path>
                        <path d="M1.44355556,8.32 C1.15283951,8.01 0.982419753,7.53 0.982419753,6.92 L0.982419753,7.07 C0.982419753,7.69 1.15283951,8.17 1.44355556,8.47 L1.5137284,8.4 L1.44355556,8.32 Z" opacity="0.12"></path>
                    </g>
                    <path d="M23.0668148,14.3 L18.0644938,17.13 L18.154716,17.22 L23.0567901,14.44 C23.7585185,14.04 24.1093827,13.52 24.1093827,13 L24.1093827,13 C24.0592593,13.47 23.7083951,13.94 23.0668148,14.3 Z" id="Path" fill="#000000" opacity="0.12"></path>
                    <path d="M3.51866667,0.62 L23.0668148,11.7 C23.6983704,12.06 24.0592593,12.52 24.1194074,13 L24.1194074,13 C24.1194074,12.48 23.7685432,11.95 23.0668148,11.56 L3.51866667,0.48 C2.11520988,-0.31 0.972395062,0.35 0.972395062,1.95 L0.972395062,2.1 C0.972395062,0.49 2.12523457,-0.17 3.51866667,0.62 Z" id="Path" fill="#FFFFFF" opacity="0.25"></path>
                </g>
            </g>
        </g>
    </g>
</svg>